<mxfile host="app.diagrams.net" modified="2021-01-13T09:13:31.421Z" agent="5.0 (Windows NT 10.0; Win64; x64) AppleWebKit/537.36 (KHTML, like Gecko) Chrome/87.0.4280.141 Safari/537.36" etag="HEonB6MQn_9OZzyyGejh" version="14.1.9" type="github">
  <diagram id="C5RBs43oDa-KdzZeNtuy" name="Page-1">
    <mxGraphModel dx="868" dy="520" grid="1" gridSize="10" guides="1" tooltips="1" connect="1" arrows="1" fold="1" page="1" pageScale="1" pageWidth="827" pageHeight="1169" math="0" shadow="0">
      <root>
        <mxCell id="WIyWlLk6GJQsqaUBKTNV-0" />
        <mxCell id="WIyWlLk6GJQsqaUBKTNV-1" parent="WIyWlLk6GJQsqaUBKTNV-0" />
        <mxCell id="1WzWz1-zLdEJLsXIyBp_-2" value="" style="edgeStyle=orthogonalEdgeStyle;rounded=0;orthogonalLoop=1;jettySize=auto;html=1;" edge="1" parent="WIyWlLk6GJQsqaUBKTNV-1" source="1WzWz1-zLdEJLsXIyBp_-0" target="1WzWz1-zLdEJLsXIyBp_-1">
          <mxGeometry relative="1" as="geometry" />
        </mxCell>
        <mxCell id="1WzWz1-zLdEJLsXIyBp_-0" value="START" style="ellipse;whiteSpace=wrap;html=1;" vertex="1" parent="WIyWlLk6GJQsqaUBKTNV-1">
          <mxGeometry x="160" y="40" width="120" height="50" as="geometry" />
        </mxCell>
        <mxCell id="1WzWz1-zLdEJLsXIyBp_-4" value="" style="edgeStyle=orthogonalEdgeStyle;rounded=0;orthogonalLoop=1;jettySize=auto;html=1;" edge="1" parent="WIyWlLk6GJQsqaUBKTNV-1" source="1WzWz1-zLdEJLsXIyBp_-1" target="1WzWz1-zLdEJLsXIyBp_-3">
          <mxGeometry relative="1" as="geometry" />
        </mxCell>
        <mxCell id="1WzWz1-zLdEJLsXIyBp_-1" value="Ask User to dimension of board&amp;nbsp;" style="shape=parallelogram;perimeter=parallelogramPerimeter;whiteSpace=wrap;html=1;fixedSize=1;size=10;" vertex="1" parent="WIyWlLk6GJQsqaUBKTNV-1">
          <mxGeometry x="160" y="110" width="120" height="60" as="geometry" />
        </mxCell>
        <mxCell id="1WzWz1-zLdEJLsXIyBp_-6" value="" style="edgeStyle=orthogonalEdgeStyle;rounded=0;orthogonalLoop=1;jettySize=auto;html=1;" edge="1" parent="WIyWlLk6GJQsqaUBKTNV-1" source="1WzWz1-zLdEJLsXIyBp_-3" target="1WzWz1-zLdEJLsXIyBp_-5">
          <mxGeometry relative="1" as="geometry" />
        </mxCell>
        <mxCell id="1WzWz1-zLdEJLsXIyBp_-3" value="Create board and plant bombs on board" style="rounded=0;whiteSpace=wrap;html=1;" vertex="1" parent="WIyWlLk6GJQsqaUBKTNV-1">
          <mxGeometry x="155" y="200" width="130" height="60" as="geometry" />
        </mxCell>
        <mxCell id="1WzWz1-zLdEJLsXIyBp_-8" value="" style="edgeStyle=orthogonalEdgeStyle;rounded=0;orthogonalLoop=1;jettySize=auto;html=1;" edge="1" parent="WIyWlLk6GJQsqaUBKTNV-1" source="1WzWz1-zLdEJLsXIyBp_-5" target="1WzWz1-zLdEJLsXIyBp_-7">
          <mxGeometry relative="1" as="geometry" />
        </mxCell>
        <mxCell id="1WzWz1-zLdEJLsXIyBp_-5" value="Ask user to where to dig&amp;nbsp;" style="shape=parallelogram;perimeter=parallelogramPerimeter;whiteSpace=wrap;html=1;fixedSize=1;size=10;" vertex="1" parent="WIyWlLk6GJQsqaUBKTNV-1">
          <mxGeometry x="155" y="290" width="130" height="60" as="geometry" />
        </mxCell>
        <mxCell id="1WzWz1-zLdEJLsXIyBp_-16" value="" style="edgeStyle=orthogonalEdgeStyle;rounded=0;orthogonalLoop=1;jettySize=auto;html=1;fontFamily=Helvetica;" edge="1" parent="WIyWlLk6GJQsqaUBKTNV-1" source="1WzWz1-zLdEJLsXIyBp_-7" target="1WzWz1-zLdEJLsXIyBp_-9">
          <mxGeometry relative="1" as="geometry" />
        </mxCell>
        <mxCell id="1WzWz1-zLdEJLsXIyBp_-18" value="" style="edgeStyle=orthogonalEdgeStyle;rounded=0;orthogonalLoop=1;jettySize=auto;html=1;fontFamily=Helvetica;" edge="1" parent="WIyWlLk6GJQsqaUBKTNV-1" source="1WzWz1-zLdEJLsXIyBp_-7" target="1WzWz1-zLdEJLsXIyBp_-17">
          <mxGeometry relative="1" as="geometry" />
        </mxCell>
        <mxCell id="1WzWz1-zLdEJLsXIyBp_-7" value="IF bomb found" style="rhombus;whiteSpace=wrap;html=1;" vertex="1" parent="WIyWlLk6GJQsqaUBKTNV-1">
          <mxGeometry x="165" y="380" width="110" height="80" as="geometry" />
        </mxCell>
        <mxCell id="1WzWz1-zLdEJLsXIyBp_-9" value="GAME OVER" style="ellipse;whiteSpace=wrap;html=1;" vertex="1" parent="WIyWlLk6GJQsqaUBKTNV-1">
          <mxGeometry x="340" y="395" width="120" height="50" as="geometry" />
        </mxCell>
        <mxCell id="1WzWz1-zLdEJLsXIyBp_-11" value="TRUE" style="text;html=1;strokeColor=none;fillColor=none;align=center;verticalAlign=middle;whiteSpace=wrap;rounded=0;fontFamily=Helvetica;" vertex="1" parent="WIyWlLk6GJQsqaUBKTNV-1">
          <mxGeometry x="285" y="380" width="40" height="20" as="geometry" />
        </mxCell>
        <mxCell id="1WzWz1-zLdEJLsXIyBp_-20" style="edgeStyle=orthogonalEdgeStyle;rounded=0;orthogonalLoop=1;jettySize=auto;html=1;exitX=0.5;exitY=1;exitDx=0;exitDy=0;entryX=0;entryY=0.5;entryDx=0;entryDy=0;fontFamily=Helvetica;" edge="1" parent="WIyWlLk6GJQsqaUBKTNV-1" source="1WzWz1-zLdEJLsXIyBp_-17" target="1WzWz1-zLdEJLsXIyBp_-5">
          <mxGeometry relative="1" as="geometry">
            <Array as="points">
              <mxPoint x="220" y="580" />
              <mxPoint x="120" y="580" />
              <mxPoint x="120" y="320" />
            </Array>
          </mxGeometry>
        </mxCell>
        <mxCell id="1WzWz1-zLdEJLsXIyBp_-22" style="edgeStyle=orthogonalEdgeStyle;rounded=0;orthogonalLoop=1;jettySize=auto;html=1;exitX=1;exitY=0.5;exitDx=0;exitDy=0;entryX=0.5;entryY=1;entryDx=0;entryDy=0;fontFamily=Helvetica;" edge="1" parent="WIyWlLk6GJQsqaUBKTNV-1" source="1WzWz1-zLdEJLsXIyBp_-17" target="1WzWz1-zLdEJLsXIyBp_-9">
          <mxGeometry relative="1" as="geometry" />
        </mxCell>
        <mxCell id="1WzWz1-zLdEJLsXIyBp_-17" value="&lt;font style=&quot;font-size: 12px&quot;&gt;IF there is any place to dig&lt;/font&gt;" style="rhombus;whiteSpace=wrap;html=1;fontFamily=Helvetica;" vertex="1" parent="WIyWlLk6GJQsqaUBKTNV-1">
          <mxGeometry x="152.5" y="490" width="135" height="70" as="geometry" />
        </mxCell>
        <mxCell id="1WzWz1-zLdEJLsXIyBp_-19" value="FALSE" style="text;html=1;strokeColor=none;fillColor=none;align=center;verticalAlign=middle;whiteSpace=wrap;rounded=0;fontFamily=Helvetica;" vertex="1" parent="WIyWlLk6GJQsqaUBKTNV-1">
          <mxGeometry x="240" y="460" width="40" height="20" as="geometry" />
        </mxCell>
        <mxCell id="1WzWz1-zLdEJLsXIyBp_-21" value="TRUE" style="text;html=1;strokeColor=none;fillColor=none;align=center;verticalAlign=middle;whiteSpace=wrap;rounded=0;fontFamily=Helvetica;" vertex="1" parent="WIyWlLk6GJQsqaUBKTNV-1">
          <mxGeometry x="160" y="590" width="40" height="20" as="geometry" />
        </mxCell>
        <mxCell id="1WzWz1-zLdEJLsXIyBp_-23" value="FALSE" style="text;html=1;strokeColor=none;fillColor=none;align=center;verticalAlign=middle;whiteSpace=wrap;rounded=0;fontFamily=Helvetica;" vertex="1" parent="WIyWlLk6GJQsqaUBKTNV-1">
          <mxGeometry x="325" y="530" width="40" height="20" as="geometry" />
        </mxCell>
      </root>
    </mxGraphModel>
  </diagram>
</mxfile>
